<svg width="239" height="35" viewBox="0 0 239 35" fill="none" xmlns="http://www.w3.org/2000/svg">
<g clip-path="url(#clip0_6113_4324)">
<path d="M25.0137 32.7123L29.3407 8.17286C29.5185 7.04668 28.8665 5.92042 27.7995 5.56478L27.9773 5.03131L33.1342 6.9281C34.3789 7.40232 34.9717 8.70633 34.5568 9.95108L26.0806 33.1865C25.6064 34.4313 24.5988 34.7277 22.8206 34.7277H22.2278C23.4133 34.6684 24.7765 34.0163 25.0137 32.7123Z" fill="#ECF4F7"/>
<path d="M21.6351 34.6684C22.9391 34.6684 24.006 33.6015 24.006 32.2975V7.40235C24.006 6.27616 23.1761 5.32773 22.1092 5.09066L22.2278 4.55719L27.3846 5.4463C27.5032 5.4463 27.681 5.50555 27.7995 5.56487C28.8665 5.97977 29.5185 7.0467 29.3407 8.17296L25.0137 32.7124C24.7766 34.0164 23.4725 34.6685 22.2871 34.6685H21.6351V34.6684Z" fill="#ECF4F7"/>
<path d="M12.1511 14.5152C13.9294 17.4789 17.4858 18.0716 16.8931 21.0354C16.656 22.3394 15.8262 23.4063 14.5222 23.4063C13.2181 23.4063 12.7439 22.8136 12.1512 21.6281C11.5585 22.8136 11.0843 23.4063 9.78027 23.4063C8.47627 23.4063 7.40933 22.3394 7.40933 21.0354C7.40926 18.0716 10.3729 17.4789 12.1511 14.5152Z" fill="#A29874"/>
<path d="M12.0919 2.77891L22.2278 4.55713L27.3846 5.44624C27.5032 5.44624 27.681 5.50549 27.7995 5.56481L27.9773 5.03135L15.4113 0.467219C14.1665 -0.00699657 12.8625 0.645041 12.3883 1.8898L12.0919 2.77891L8.71328 2.18619C7.40927 1.94912 6.16451 2.83823 5.98669 4.14224L5.80887 5.0906H5.86812H21.6943C21.8721 5.0906 21.9907 5.0906 22.1685 5.14985L22.2871 4.61638L12.0919 2.77891Z" fill="#ECF4F7"/>
<path d="M24.006 7.40231V32.2974C24.006 33.6014 22.9391 34.6684 21.6351 34.6684H2.66733C1.36332 34.6684 0.296387 33.6014 0.296387 32.2974V7.40231C0.296387 6.09831 1.36332 5.03137 2.66733 5.03137H5.80888H5.86813H21.6943C21.8721 5.03137 21.9907 5.03137 22.1685 5.09062C23.1761 5.32777 24.006 6.27613 24.006 7.40231ZM12.1512 21.6281C12.7439 22.8136 13.2181 23.4063 14.5221 23.4063C15.8261 23.4063 16.656 22.3394 16.893 21.0354C17.4858 18.0716 13.9293 17.4789 12.1511 14.5152C10.3729 17.4789 7.40914 18.0716 7.40914 21.0354C7.40914 22.3394 8.47607 23.4063 9.78008 23.4063C11.0841 23.4063 11.5584 22.8136 12.1512 21.6281Z" fill="#ECF4F7"/>
<path d="M22.8205 34.9647H2.66733C1.1855 34.9647 0 33.7792 0 32.2974V7.40227C0 5.92044 1.1855 4.73494 2.66733 4.73494H5.51249L5.63106 4.02365C5.74963 3.31236 6.16453 2.71964 6.69799 2.30468C7.29071 1.88978 8.002 1.71196 8.71329 1.88978L11.8548 2.42325L12.1512 1.77121C12.3883 1.11917 12.8625 0.585706 13.5146 0.289382C14.1666 -0.00694206 14.8779 -0.0662625 15.5299 0.230131L33.2528 6.69098C34.6161 7.1652 35.3274 8.70628 34.8532 10.0696L26.3769 33.3051C25.8435 34.6684 24.5395 34.9647 22.8205 34.9647ZM2.66733 5.32772C1.54115 5.32772 0.592718 6.27609 0.592718 7.40234V32.2975C0.592718 33.4236 1.54108 34.3721 2.66733 34.3721H21.6351C22.7612 34.3721 23.7097 33.4237 23.7097 32.2975V7.40234C23.7097 6.27616 22.7613 5.32772 21.6351 5.32772H8.002C7.82418 5.32772 7.70561 5.20915 7.70561 5.03133C7.70561 4.85351 7.82418 4.73494 8.002 4.73494H21.6351L14.9963 3.5495C14.8185 3.5495 14.6999 3.37168 14.7592 3.19386C14.7592 3.01604 14.9371 2.89746 15.1149 2.95678L27.4439 5.1499C27.5625 5.1499 27.6218 5.20915 27.7403 5.20915L15.352 0.704347C14.8186 0.526525 14.2851 0.526525 13.7516 0.763598C13.2774 1.00067 12.8625 1.41564 12.6847 1.9491L12.3291 2.83821C12.2698 2.95678 12.1512 3.01604 12.0327 3.01604L8.71329 2.42332C8.17982 2.30475 7.5871 2.42332 7.17214 2.77896C6.69799 3.07529 6.4016 3.5495 6.34235 4.14222L6.16453 5.09058C6.16453 5.20915 5.9867 5.32766 5.86813 5.32766L2.66733 5.32772ZM28.0367 5.32772C29.1628 5.80194 29.8149 6.98738 29.5778 8.23213L25.2508 32.7716C25.1323 33.3643 24.8359 33.8978 24.3617 34.2534C25.1323 34.0756 25.5472 33.72 25.7843 33.0679L34.2605 9.83246C34.6754 8.76553 34.0827 7.58002 33.0158 7.16513L28.0367 5.32772ZM22.5242 4.91276C23.5319 5.2684 24.3024 6.27609 24.3024 7.40227V32.2974C24.3024 32.9494 24.0653 33.5421 23.7097 34.0164C24.1839 33.72 24.5988 33.3051 24.7174 32.653L29.0443 8.11356C29.2222 6.98738 28.5109 5.92044 27.3847 5.6833L22.5242 4.91276ZM21.0423 31.4083H19.8568C19.6789 31.4083 19.5604 31.2897 19.5604 31.1119C19.5604 30.9341 19.6789 30.8155 19.8568 30.8155H20.1532V28.2668L19.5011 28.9188C19.3826 29.0374 19.2047 29.0374 19.0862 28.9188C18.9677 28.8003 18.9677 28.6224 19.0862 28.5039L20.2717 27.3184C20.331 27.2592 20.5088 27.1999 20.5681 27.2592C20.6867 27.3184 20.7459 27.437 20.7459 27.5556V30.8156H21.0423C21.2202 30.8156 21.3387 30.9342 21.3387 31.112C21.3387 31.2898 21.2201 31.4083 21.0423 31.4083ZM12.1512 25.4809C11.9733 25.4809 11.8548 25.3623 11.8548 25.1845V22.7543C11.4399 23.347 10.8471 23.7027 9.78015 23.7027C8.29832 23.7027 7.11282 22.5172 7.11282 21.0353C7.11282 19.1385 8.239 18.1309 9.48376 17.064C10.3136 16.2935 11.2027 15.5228 11.914 14.3967C12.0326 14.2188 12.3289 14.2188 12.4475 14.3967C13.1588 15.5228 14.1071 16.3527 14.9962 17.064C16.3596 18.1902 17.6043 19.1979 17.2487 21.1539C16.9523 22.7543 15.8854 23.762 14.5814 23.762C13.5144 23.762 12.9217 23.4063 12.5067 22.8136V25.2439C12.4476 25.3623 12.329 25.4809 12.1512 25.4809ZM12.4476 21.5095C13.0403 22.6951 13.4552 23.1099 14.5222 23.1099C15.7669 23.1099 16.419 21.9838 16.5968 20.9761C16.8932 19.3757 15.8855 18.5458 14.5815 17.4789C13.7516 16.8268 12.8625 16.1156 12.1512 15.0486C11.4399 16.0563 10.6101 16.8268 9.83954 17.4789C8.65404 18.5458 7.64643 19.3757 7.64643 21.0353C7.64643 22.1615 8.59479 23.1099 9.72104 23.1099C10.8473 23.1099 11.2029 22.6951 11.7957 21.5095C11.7957 21.5095 11.7957 21.4503 11.8549 21.4503C11.8549 21.4503 11.8549 21.4503 11.9142 21.391C11.9734 21.3318 12.0327 21.3318 12.092 21.3318C12.1512 21.3318 12.2106 21.391 12.2698 21.391C12.3883 21.4502 12.3883 21.4502 12.4476 21.5095ZM5.03827 12.4406H3.85284C3.67502 12.4406 3.55644 12.322 3.55644 12.1442C3.55644 11.9664 3.67502 11.8478 3.85284 11.8478H4.14923V9.29906L3.49719 9.9511C3.37862 10.0697 3.2008 10.0697 3.0823 9.9511C2.96373 9.83253 2.96373 9.65471 3.0823 9.53621L4.26773 8.3507C4.32698 8.29145 4.50481 8.23213 4.56413 8.29145C4.6827 8.3507 4.74195 8.46927 4.74195 8.58785V11.8479H5.03834C5.21616 11.8479 5.33474 11.9665 5.33474 12.1443C5.33467 12.322 5.2161 12.4406 5.03827 12.4406Z" fill="black"/>
</g>
<path d="M51.2109 9.78125H54.5117L57.8613 19.3613C57.9199 19.5371 57.9655 19.6999 57.998 19.8496C58.0371 19.9993 58.0794 20.1719 58.125 20.3672H58.2031C58.2487 20.1719 58.291 19.9993 58.3301 19.8496C58.3757 19.6934 58.4245 19.5306 58.4766 19.3613L61.8848 9.78125H64.8145L59.6582 24.0488H56.3867L51.2109 9.78125ZM64.8535 19.0879V18.7754C64.8535 17.1868 65.3418 15.9271 66.3184 14.9961C67.2949 14.0586 68.5677 13.5898 70.1367 13.5898C71.7057 13.5898 72.9753 14.0586 73.9453 14.9961C74.9219 15.9271 75.4102 17.1868 75.4102 18.7754V19.0879C75.4102 20.6764 74.9219 21.9395 73.9453 22.877C72.9753 23.8145 71.7057 24.2832 70.1367 24.2832C68.5677 24.2832 67.2949 23.8145 66.3184 22.877C65.3418 21.9395 64.8535 20.6764 64.8535 19.0879ZM67.8809 18.6191V19.2441C67.8809 20.1556 68.0762 20.8555 68.4668 21.3438C68.8574 21.8255 69.4141 22.0664 70.1367 22.0664C70.8594 22.0664 71.4128 21.8255 71.7969 21.3438C72.1875 20.8555 72.3828 20.1556 72.3828 19.2441V18.6191C72.3828 17.7077 72.1842 17.0111 71.7871 16.5293C71.3965 16.0475 70.8464 15.8066 70.1367 15.8066C69.4271 15.8066 68.8737 16.0475 68.4766 16.5293C68.0794 17.0111 67.8809 17.7077 67.8809 18.6191ZM76.748 19.0879V18.7754C76.748 17.2129 77.2233 15.9596 78.1738 15.0156C79.1309 14.0651 80.3548 13.5898 81.8457 13.5898C83.3496 13.5898 84.5247 14.0358 85.3711 14.9277C86.224 15.8197 86.6504 17.0469 86.6504 18.6094V19.6348H78.7012V17.8477H83.7305V17.6523C83.7305 17.1055 83.5677 16.6465 83.2422 16.2754C82.9167 15.8978 82.4479 15.709 81.8359 15.709C81.1393 15.709 80.6087 15.9694 80.2441 16.4902C79.8796 17.0111 79.6973 17.7109 79.6973 18.5898V19.2246C79.6973 20.1165 79.8926 20.8229 80.2832 21.3438C80.6803 21.8581 81.2598 22.1152 82.0215 22.1152C82.5553 22.1152 83.0143 21.9883 83.3984 21.7344C83.7891 21.474 84.1016 21.1712 84.3359 20.8262L86.4844 22.0762C86.1589 22.7207 85.612 23.2513 84.8438 23.668C84.0755 24.0846 83.151 24.293 82.0703 24.293C80.4102 24.293 79.1081 23.8177 78.1641 22.8672C77.2201 21.9167 76.748 20.6569 76.748 19.0879ZM86.2793 28.0137L86.2598 25.8457C86.3704 25.8848 86.543 25.9271 86.7773 25.9727C87.0117 26.0182 87.2363 26.041 87.4512 26.041C87.8092 26.041 88.0762 25.9238 88.252 25.6895C88.4342 25.4551 88.5254 25.0547 88.5254 24.4883V13.8828H91.4941V24.5762C91.4941 25.8132 91.1882 26.7344 90.5762 27.3398C89.9642 27.9518 89.1016 28.2578 87.9883 28.2578C87.7344 28.2578 87.4251 28.2318 87.0605 28.1797C86.696 28.1341 86.4355 28.0788 86.2793 28.0137ZM88.2812 10.9824C88.2812 10.5397 88.4277 10.1686 88.7207 9.86914C89.0202 9.56315 89.4499 9.41016 90.0098 9.41016C90.5632 9.41016 90.9863 9.56315 91.2793 9.86914C91.5788 10.1686 91.7285 10.5397 91.7285 10.9824C91.7285 11.4316 91.5788 11.8092 91.2793 12.1152C90.9798 12.4212 90.5534 12.5742 90 12.5742C89.4466 12.5742 89.0202 12.4212 88.7207 12.1152C88.4277 11.8092 88.2812 11.4316 88.2812 10.9824ZM93.3887 21.0312C93.3887 19.9115 93.8184 19.0684 94.6777 18.502C95.5436 17.9355 96.6406 17.6491 97.9688 17.6426H100V17.0664C100 16.6107 99.8828 16.2461 99.6484 15.9727C99.4206 15.6927 99.0169 15.5527 98.4375 15.5527C97.8581 15.5527 97.4447 15.6699 97.1973 15.9043C96.9499 16.1322 96.8262 16.4154 96.8262 16.7539V16.9199L93.9355 16.9102V16.7539C93.9355 15.8359 94.362 15.0807 95.2148 14.4883C96.0742 13.8958 97.194 13.5996 98.5742 13.5996C99.9544 13.5996 101.029 13.8828 101.797 14.4492C102.572 15.0156 102.959 15.8978 102.959 17.0957V21.7246C102.959 22.1348 102.995 22.5254 103.066 22.8965C103.145 23.2676 103.249 23.5833 103.379 23.8438V24H100.469C100.384 23.8503 100.312 23.6549 100.254 23.4141C100.195 23.1732 100.153 22.9355 100.127 22.7012C99.9316 23.0853 99.5508 23.4303 98.9844 23.7363C98.4245 24.0358 97.7246 24.1855 96.8848 24.1855C95.8822 24.1855 95.0488 23.9219 94.3848 23.3945C93.7207 22.8672 93.3887 22.0794 93.3887 21.0312ZM96.3477 20.7773C96.3477 21.2201 96.4746 21.5749 96.7285 21.8418C96.9889 22.1022 97.3893 22.2324 97.9297 22.2324C98.5221 22.2324 99.0137 22.0436 99.4043 21.666C99.8014 21.2884 100 20.8424 100 20.3281V19.3809H98.457C97.7409 19.3809 97.2103 19.5013 96.8652 19.7422C96.5202 19.9766 96.3477 20.3216 96.3477 20.7773ZM109.756 19.9961V19.6641H112.822V19.9277C112.816 20.6178 113.031 21.1387 113.467 21.4902C113.91 21.8353 114.521 22.0078 115.303 22.0078C116.077 22.0078 116.673 21.8483 117.09 21.5293C117.507 21.2038 117.715 20.7741 117.715 20.2402C117.715 19.6934 117.513 19.2702 117.109 18.9707C116.706 18.6712 115.833 18.3424 114.492 17.9844C113.008 17.5872 111.882 17.0534 111.113 16.3828C110.352 15.7057 109.971 14.7878 109.971 13.6289C109.971 12.3724 110.443 11.373 111.387 10.6309C112.337 9.88216 113.613 9.50781 115.215 9.50781C116.81 9.50781 118.089 9.88867 119.053 10.6504C120.016 11.4121 120.498 12.431 120.498 13.707V14.0098H117.49V13.7754C117.49 13.1764 117.298 12.6979 116.914 12.3398C116.536 11.9753 115.977 11.793 115.234 11.793C114.479 11.793 113.926 11.9395 113.574 12.2324C113.223 12.5189 113.047 12.9062 113.047 13.3945C113.047 13.8763 113.242 14.2441 113.633 14.498C114.03 14.752 114.899 15.0612 116.24 15.4258C117.699 15.8229 118.818 16.3665 119.6 17.0566C120.387 17.7467 120.781 18.7298 120.781 20.0059C120.781 21.3535 120.28 22.4017 119.277 23.1504C118.281 23.8991 116.96 24.2734 115.312 24.2734C113.678 24.2734 112.344 23.9089 111.309 23.1797C110.273 22.4505 109.756 21.3893 109.756 19.9961ZM122.1 19.0879V18.7754C122.1 17.1803 122.572 15.9173 123.516 14.9863C124.466 14.0553 125.726 13.5898 127.295 13.5898C128.792 13.5898 129.935 13.9544 130.723 14.6836C131.51 15.4128 131.93 16.3014 131.982 17.3496L132.002 17.5352H129.111V17.4082C129.111 16.9329 128.958 16.5423 128.652 16.2363C128.353 15.9238 127.897 15.7676 127.285 15.7676C126.576 15.7676 126.038 16.0247 125.674 16.5391C125.309 17.0469 125.127 17.7402 125.127 18.6191V19.2441C125.127 20.123 125.303 20.8229 125.654 21.3438C126.012 21.8581 126.556 22.1152 127.285 22.1152C127.949 22.1152 128.418 21.9525 128.691 21.627C128.971 21.2949 129.111 20.9076 129.111 20.4648V20.3477H131.992V20.4844C131.986 21.526 131.576 22.4212 130.762 23.1699C129.948 23.9121 128.792 24.2832 127.295 24.2832C125.732 24.2832 124.476 23.8177 123.525 22.8867C122.575 21.9492 122.1 20.6829 122.1 19.0879ZM133.652 24V13.8828H136.504L136.562 15.0254H136.611C136.82 14.6348 137.109 14.3027 137.48 14.0293C137.852 13.7559 138.268 13.6191 138.73 13.6191C138.874 13.6191 139.017 13.6354 139.16 13.668C139.303 13.694 139.404 13.7201 139.463 13.7461V16.2461C139.346 16.2135 139.219 16.1908 139.082 16.1777C138.952 16.1582 138.805 16.1484 138.643 16.1484C138.2 16.1484 137.796 16.2819 137.432 16.5488C137.074 16.8158 136.81 17.1543 136.641 17.5645V24H133.652ZM140.869 20.123V13.8828H143.838V20.1426C143.838 20.8197 143.975 21.2917 144.248 21.5586C144.528 21.819 144.906 21.9492 145.381 21.9492C145.811 21.9492 146.195 21.8255 146.533 21.5781C146.872 21.3242 147.126 21.0085 147.295 20.6309V13.8828H150.254V24H147.432L147.363 22.8281H147.324C147.031 23.2513 146.621 23.5866 146.094 23.834C145.573 24.0814 144.984 24.2051 144.326 24.2051C143.317 24.2051 142.487 23.8926 141.836 23.2676C141.191 22.6361 140.869 21.5879 140.869 20.123ZM152.656 24V13.8828H155.479L155.537 15.084H155.596C155.895 14.6348 156.299 14.2897 156.807 14.0488C157.321 13.8014 157.874 13.6777 158.467 13.6777C159.176 13.6777 159.792 13.8275 160.312 14.127C160.84 14.4199 161.221 14.8561 161.455 15.4355H161.494C161.839 14.8626 162.311 14.4264 162.91 14.127C163.509 13.8275 164.147 13.6777 164.824 13.6777C165.84 13.6777 166.657 13.9935 167.275 14.625C167.9 15.25 168.213 16.2949 168.213 17.7598V24H165.244V17.6914C165.244 17.0924 165.12 16.653 164.873 16.373C164.626 16.0866 164.258 15.9401 163.77 15.9336C163.346 15.9336 162.975 16.054 162.656 16.2949C162.344 16.5293 162.096 16.8548 161.914 17.2715V24H158.945V17.7109C158.945 17.099 158.818 16.6497 158.564 16.3633C158.317 16.0768 157.946 15.9336 157.451 15.9336C157.028 15.9336 156.66 16.0508 156.348 16.2852C156.042 16.513 155.801 16.8418 155.625 17.2715V24H152.656ZM175.615 24V9.78125H181.113C182.734 9.78125 183.981 10.1849 184.854 10.9922C185.726 11.7995 186.162 12.9421 186.162 14.4199C186.162 15.8848 185.726 17.0273 184.854 17.8477C183.988 18.668 182.734 19.0781 181.094 19.0781H178.672V24H175.615ZM178.672 16.832H180.752C181.637 16.832 182.253 16.6172 182.598 16.1875C182.943 15.7578 183.115 15.1719 183.115 14.4297C183.115 13.694 182.943 13.1178 182.598 12.7012C182.253 12.278 181.637 12.0664 180.752 12.0664H178.672V16.832ZM187.178 19.0879V18.7754C187.178 17.1868 187.666 15.9271 188.643 14.9961C189.619 14.0586 190.892 13.5898 192.461 13.5898C194.03 13.5898 195.299 14.0586 196.27 14.9961C197.246 15.9271 197.734 17.1868 197.734 18.7754V19.0879C197.734 20.6764 197.246 21.9395 196.27 22.877C195.299 23.8145 194.03 24.2832 192.461 24.2832C190.892 24.2832 189.619 23.8145 188.643 22.877C187.666 21.9395 187.178 20.6764 187.178 19.0879ZM190.205 18.6191V19.2441C190.205 20.1556 190.4 20.8555 190.791 21.3438C191.182 21.8255 191.738 22.0664 192.461 22.0664C193.184 22.0664 193.737 21.8255 194.121 21.3438C194.512 20.8555 194.707 20.1556 194.707 19.2441V18.6191C194.707 17.7077 194.508 17.0111 194.111 16.5293C193.721 16.0475 193.171 15.8066 192.461 15.8066C191.751 15.8066 191.198 16.0475 190.801 16.5293C190.404 17.0111 190.205 17.7077 190.205 18.6191ZM199.072 19.0879V18.7754C199.072 17.1803 199.544 15.9173 200.488 14.9863C201.439 14.0553 202.699 13.5898 204.268 13.5898C205.765 13.5898 206.908 13.9544 207.695 14.6836C208.483 15.4128 208.903 16.3014 208.955 17.3496L208.975 17.5352H206.084V17.4082C206.084 16.9329 205.931 16.5423 205.625 16.2363C205.326 15.9238 204.87 15.7676 204.258 15.7676C203.548 15.7676 203.011 16.0247 202.646 16.5391C202.282 17.0469 202.1 17.7402 202.1 18.6191V19.2441C202.1 20.123 202.275 20.8229 202.627 21.3438C202.985 21.8581 203.529 22.1152 204.258 22.1152C204.922 22.1152 205.391 21.9525 205.664 21.627C205.944 21.2949 206.084 20.9076 206.084 20.4648V20.3477H208.965V20.4844C208.958 21.526 208.548 22.4212 207.734 23.1699C206.921 23.9121 205.765 24.2832 204.268 24.2832C202.705 24.2832 201.449 23.8177 200.498 22.8867C199.548 21.9492 199.072 20.6829 199.072 19.0879ZM210.625 24V9.14648H213.594V17.4668L216.895 13.873H220.166L213.594 20.8848V24H210.625ZM217.119 24L213.662 19.2734L215.537 17.1836L220.605 24H217.119ZM220.752 19.0879V18.7754C220.752 17.2129 221.227 15.9596 222.178 15.0156C223.135 14.0651 224.359 13.5898 225.85 13.5898C227.354 13.5898 228.529 14.0358 229.375 14.9277C230.228 15.8197 230.654 17.0469 230.654 18.6094V19.6348H222.705V17.8477H227.734V17.6523C227.734 17.1055 227.572 16.6465 227.246 16.2754C226.921 15.8978 226.452 15.709 225.84 15.709C225.143 15.709 224.613 15.9694 224.248 16.4902C223.883 17.0111 223.701 17.7109 223.701 18.5898V19.2246C223.701 20.1165 223.896 20.8229 224.287 21.3438C224.684 21.8581 225.264 22.1152 226.025 22.1152C226.559 22.1152 227.018 21.9883 227.402 21.7344C227.793 21.474 228.105 21.1712 228.34 20.8262L230.488 22.0762C230.163 22.7207 229.616 23.2513 228.848 23.668C228.079 24.0846 227.155 24.293 226.074 24.293C224.414 24.293 223.112 23.8177 222.168 22.8672C221.224 21.9167 220.752 20.6569 220.752 19.0879ZM232.402 24V13.8828H235.254L235.312 15.0254H235.361C235.57 14.6348 235.859 14.3027 236.23 14.0293C236.602 13.7559 237.018 13.6191 237.48 13.6191C237.624 13.6191 237.767 13.6354 237.91 13.668C238.053 13.694 238.154 13.7201 238.213 13.7461V16.2461C238.096 16.2135 237.969 16.1908 237.832 16.1777C237.702 16.1582 237.555 16.1484 237.393 16.1484C236.95 16.1484 236.546 16.2819 236.182 16.5488C235.824 16.8158 235.56 17.1543 235.391 17.5645V24H232.402Z" fill="white"/>
<defs>
<clipPath id="clip0_6113_4324">
<rect width="35" height="35" fill="white"/>
</clipPath>
</defs>
</svg>
